<?xml version="1.0" standalone="no"?>
<!DOCTYPE svg PUBLIC "-//W3C//DTD SVG 20010904//EN"
 "http://www.w3.org/TR/2001/REC-SVG-20010904/DTD/svg10.dtd">
<svg version="1.0" xmlns="http://www.w3.org/2000/svg"
 width="118.000000pt" height="118.000000pt" viewBox="0 0 118.000000 118.000000"
 preserveAspectRatio="xMidYMid meet">
<metadata>
Created by potrace 1.11, written by Peter Selinger 2001-2013
</metadata>
<g transform="translate(0.000000,118.000000) scale(0.100000,-0.100000)"
fill="#000000" stroke="none">
<path d="M645 887 c-22 -13 -85 -47 -140 -76 -271 -143 -404 -224 -416 -252
-13 -33 -6 -70 18 -95 16 -15 38 -16 248 -9 126 4 241 7 254 6 13 -1 92 -45
175 -99 253 -165 275 -174 315 -130 39 41 36 53 -42 192 -106 189 -258 434
-286 462 -30 31 -73 31 -126 1z"/>
</g>
</svg>
